{
	"asset":{
		"generator":"Khronos glTF Blender I/O v4.0.44",
		"version":"2.0"
	},
	"scene":0,
	"scenes":[
		{
			"name":"Scene",
			"nodes":[
				0
			]
		}
	],
	"nodes":[
		{
			"mesh":0,
			"name":"Cube.002",
			"translation":[
				-0.6308929920196533,
				0.9963321089744568,
				0.7126938700675964
			]
		}
	],
	"materials":[
		{
			"doubleSided":true,
			"name":"cuube1",
			"pbrMetallicRoughness":{
				"baseColorFactor":[
					0.7999992966651917,
					0.05178140476346016,
					0.05584915354847908,
					1
				],
				"metallicFactor":0,
				"roughnessFactor":0.5
			}
		},
		{
			"doubleSided":true,
			"name":"block",
			"pbrMetallicRoughness":{
				"baseColorFactor":[
					0.00543530099093914,
					0.7999992966651917,
					0.0664275586605072,
					1
				],
				"metallicFactor":0,
				"roughnessFactor":0.5
			}
		}
	],
	"meshes":[
		{
			"name":"Cube.002",
			"primitives":[
				{
					"attributes":{
						"POSITION":0,
						"NORMAL":1,
						"TEXCOORD_0":2
					},
					"indices":3,
					"material":0
				},
				{
					"attributes":{
						"POSITION":4,
						"NORMAL":5,
						"TEXCOORD_0":6
					},
					"indices":7,
					"material":1
				}
			]
		}
	],
	"accessors":[
		{
			"bufferView":0,
			"componentType":5126,
			"count":91,
			"max":[
				1,
				1.6315772533416748,
				1
			],
			"min":[
				-1,
				-1,
				-1
			],
			"type":"VEC3"
		},
		{
			"bufferView":1,
			"componentType":5126,
			"count":91,
			"type":"VEC3"
		},
		{
			"bufferView":2,
			"componentType":5126,
			"count":91,
			"type":"VEC2"
		},
		{
			"bufferView":3,
			"componentType":5123,
			"count":162,
			"type":"SCALAR"
		},
		{
			"bufferView":4,
			"componentType":5126,
			"count":4,
			"max":[
				1,
				0.5609520077705383,
				0
			],
			"min":[
				1,
				-1,
				-1
			],
			"type":"VEC3"
		},
		{
			"bufferView":5,
			"componentType":5126,
			"count":4,
			"type":"VEC3"
		},
		{
			"bufferView":6,
			"componentType":5126,
			"count":4,
			"type":"VEC2"
		},
		{
			"bufferView":7,
			"componentType":5123,
			"count":6,
			"type":"SCALAR"
		}
	],
	"bufferViews":[
		{
			"buffer":0,
			"byteLength":1092,
			"byteOffset":0,
			"target":34962
		},
		{
			"buffer":0,
			"byteLength":1092,
			"byteOffset":1092,
			"target":34962
		},
		{
			"buffer":0,
			"byteLength":728,
			"byteOffset":2184,
			"target":34962
		},
		{
			"buffer":0,
			"byteLength":324,
			"byteOffset":2912,
			"target":34963
		},
		{
			"buffer":0,
			"byteLength":48,
			"byteOffset":3236,
			"target":34962
		},
		{
			"buffer":0,
			"byteLength":48,
			"byteOffset":3284,
			"target":34962
		},
		{
			"buffer":0,
			"byteLength":32,
			"byteOffset":3332,
			"target":34962
		},
		{
			"buffer":0,
			"byteLength":12,
			"byteOffset":3364,
			"target":34963
		}
	],
	"buffers":[
		{
			"byteLength":3376,
			"uri":"untitled.bin"
		}
	]
}
